<svg width="1920" height="1080" viewBox="0 0 1920 1080" fill="none" xmlns="http://www.w3.org/2000/svg">
<rect width="1920" height="1080" fill="black"/>
<path d="M738.536 550.893H654.602C656.346 564.183 667.901 573.769 686.65 573.769C696.46 573.769 709.322 570.065 715.427 563.747L732.431 580.523C721.095 592.287 702.564 597.952 686.214 597.952C649.152 597.952 627.133 575.076 627.133 540.654C627.133 507.974 649.37 484.444 684.251 484.444C720.223 484.444 742.678 506.667 738.536 550.893ZM655.038 528.889H713.029C711.284 514.945 700.384 507.974 685.123 507.974C670.735 507.974 658.962 514.945 655.038 528.889Z" fill="white"/>
<path d="M843.399 502.527L844.272 487.712H869.779V595.12H844.708L843.399 579.433C837.295 592.07 820.509 598.17 808.518 598.388C776.689 598.606 753.144 578.998 753.144 541.307C753.144 504.27 777.779 484.88 809.172 485.098C823.561 485.098 837.295 491.852 843.399 502.527ZM811.57 508.845C793.911 508.845 779.741 520.828 779.741 541.307C779.741 561.786 793.911 573.987 811.57 573.987C853.428 573.987 853.428 508.845 811.57 508.845Z" fill="white"/>
<path d="M977.328 498.823L962.504 516.253C954.873 509.063 946.153 506.667 935.907 506.667C923.262 506.667 916.286 510.588 916.286 517.342C916.286 524.314 922.608 528.235 936.343 529.107C956.617 530.414 982.343 534.989 982.343 563.529C982.343 582.484 966.864 598.823 936.125 598.823C919.12 598.823 902.115 595.991 886.419 579.651L899.499 560.697C907.13 569.194 924.57 575.512 936.561 575.73C946.589 575.948 955.963 570.719 955.963 562.876C955.963 555.468 949.859 552.418 934.599 551.547C914.324 550.022 890.125 542.614 890.125 518.213C890.125 493.377 915.85 484.662 935.471 484.662C952.257 484.662 964.902 487.93 977.328 498.823Z" fill="white"/>
<path d="M1078.31 487.712H1107.74L1042.12 640H1012.91L1032.97 593.377L990.019 487.712H1020.98L1037.33 534.118L1047.57 564.401L1058.69 534.771L1078.31 487.712Z" fill="white"/>
<path d="M1156.91 595.12H1130.32V512.549H1110.26V489.237H1130.32V482.048C1130.32 453.29 1149.72 440 1171.3 440C1180.68 440 1190.49 443.05 1199.21 448.715L1189.4 468.54C1183.73 464.837 1178.5 462.876 1173.05 462.876C1163.89 462.876 1156.91 468.976 1156.91 482.048V489.237H1188.53V512.549H1156.91V595.12Z" fill="white"/>
<path d="M1209.52 442.832H1235.9V595.12H1209.52V442.832Z" fill="white"/>
<path d="M1309.71 485.534C1343.94 485.534 1365.95 510.806 1365.95 541.525C1365.95 572.462 1344.81 597.516 1309.93 597.516C1275.04 597.516 1254.12 572.462 1254.12 541.525C1254.12 510.806 1275.48 485.534 1309.71 485.534ZM1309.93 509.717C1290.74 509.717 1280.71 525.403 1280.71 541.525C1280.71 557.865 1290.52 573.115 1309.93 573.115C1329.33 573.115 1339.14 557.865 1339.14 541.525C1339.14 525.403 1327.8 509.717 1309.93 509.717Z" fill="white"/>
<path d="M1455.06 487.495H1478.39L1501.93 568.322L1526.57 487.495H1556L1518.5 595.555H1487.55L1476.43 563.747L1466.83 527.799L1457.24 563.747L1446.12 595.555H1415.17L1377.45 487.495H1407.1L1431.73 568.322L1455.06 487.495Z" fill="white"/>
<path d="M544.098 591.101C546.834 593.836 546.834 598.269 544.098 601.004L525.349 619.743C522.613 622.478 518.177 622.478 515.441 619.743L439.379 543.719C436.643 540.985 436.643 536.551 439.379 533.816L458.128 515.077C460.864 512.342 465.3 512.342 468.036 515.077L544.098 591.101Z" fill="#00FFA4"/>
<path d="M544.098 591.101C546.834 593.836 546.834 598.269 544.098 601.004L525.349 619.743C522.613 622.478 518.177 622.478 515.441 619.743L439.379 543.719C436.643 540.985 436.643 536.551 439.379 533.816L458.128 515.077C460.864 512.342 465.3 512.342 468.036 515.077L544.098 591.101Z" fill="black" fill-opacity="0.2"/>
<path d="M556.095 518.481C559.964 518.481 563.101 521.616 563.101 525.483V551.985C563.101 555.853 559.964 558.988 556.095 558.988L448.526 558.988C444.657 558.988 441.521 555.853 441.521 551.985L441.521 525.483C441.521 521.616 444.657 518.481 448.526 518.481L556.095 518.481Z" fill="#00FFA4"/>
<path d="M556.095 518.481C559.964 518.481 563.101 521.616 563.101 525.483V551.985C563.101 555.853 559.964 558.988 556.095 558.988L448.526 558.988C444.657 558.988 441.521 555.853 441.521 551.985L441.521 525.483C441.521 521.616 444.657 518.481 448.526 518.481L556.095 518.481Z" fill="black" fill-opacity="0.1"/>
<path d="M515.116 460.583C517.852 457.849 522.288 457.849 525.024 460.583L543.773 479.323C546.509 482.058 546.509 486.491 543.773 489.226L467.71 565.25C464.975 567.985 460.539 567.985 457.803 565.25L439.054 546.51C436.318 543.776 436.318 539.342 439.054 536.608L515.116 460.583Z" fill="#00FFA4"/>
<path d="M383.747 488.111C381.011 485.377 381.011 480.943 383.747 478.208L402.496 459.469C405.232 456.734 409.667 456.734 412.403 459.469L470.555 517.592C473.291 520.326 473.291 524.76 470.555 527.494L451.806 546.234C449.07 548.969 444.635 548.969 441.899 546.234L383.747 488.111Z" fill="#00FFA4"/>
<path d="M383.747 488.111C381.011 485.377 381.011 480.943 383.747 478.208L402.496 459.469C405.232 456.734 409.667 456.734 412.403 459.469L470.555 517.592C473.291 520.326 473.291 524.76 470.555 527.494L451.806 546.234C449.07 548.969 444.635 548.969 441.899 546.234L383.747 488.111Z" fill="black" fill-opacity="0.2"/>
<path d="M383.747 488.111C381.011 485.377 381.011 480.943 383.747 478.208L402.496 459.469C405.232 456.734 409.667 456.734 412.403 459.469L470.555 517.592C473.291 520.326 473.291 524.76 470.555 527.494L451.806 546.234C449.07 548.969 444.635 548.969 441.899 546.234L383.747 488.111Z" fill="black" fill-opacity="0.2"/>
<path d="M383.747 488.111C381.011 485.377 381.011 480.943 383.747 478.208L402.496 459.469C405.232 456.734 409.667 456.734 412.403 459.469L470.555 517.592C473.291 520.326 473.291 524.76 470.555 527.494L451.806 546.234C449.07 548.969 444.635 548.969 441.899 546.234L383.747 488.111Z" fill="black" fill-opacity="0.2"/>
<path d="M444.053 447.002C444.053 443.135 447.19 440 451.059 440H477.574C481.443 440 484.58 443.135 484.58 447.002V554.517C484.58 558.384 481.443 561.519 477.574 561.519H451.059C447.19 561.519 444.053 558.384 444.053 554.517V447.002Z" fill="#00FFA4"/>
<path d="M444.053 447.002C444.053 443.135 447.19 440 451.059 440H477.574C481.443 440 484.58 443.135 484.58 447.002V554.517C484.58 558.384 481.443 561.519 477.574 561.519H451.059C447.19 561.519 444.053 558.384 444.053 554.517V447.002Z" fill="black" fill-opacity="0.2"/>
<path d="M370.038 558.989C366.151 558.989 363 555.84 363 551.955L363 525.517C363 521.632 366.151 518.483 370.038 518.483L477.543 518.483C481.43 518.483 484.58 521.632 484.58 525.517V551.955C484.58 555.84 481.43 558.989 477.543 558.989L370.038 558.989Z" fill="white"/>
<path d="M412.602 620.332C409.854 623.079 405.398 623.079 402.65 620.332L383.946 601.637C381.197 598.89 381.197 594.436 383.946 591.689L452.799 522.871C455.547 520.124 460.003 520.124 462.752 522.871L481.456 541.565C484.204 544.312 484.204 548.766 481.456 551.513L412.602 620.332Z" fill="white"/>
<path d="M484.579 634.937C484.579 637.733 482.311 640 479.513 640H449.118C446.32 640 444.052 637.733 444.052 634.937L444.052 523.544C444.052 520.748 446.32 518.481 449.118 518.481H479.513C482.311 518.481 484.579 520.748 484.579 523.544L484.579 634.937Z" fill="white"/>
</svg>
